<svg width="239" height="77" viewBox="0 0 239 77" fill="none" xmlns="http://www.w3.org/2000/svg">
<g filter="url(#filter0_d_55_3)">
<mask id="mask0_55_3" style="mask-type:luminance" maskUnits="userSpaceOnUse" x="181" y="0" width="25" height="32">
<path d="M181.594 0H205.594V31.2188H181.594V0Z" fill="white"/>
</mask>
<g mask="url(#mask0_55_3)">
<path fill-rule="evenodd" clip-rule="evenodd" d="M205.328 14.9695C200.438 19.343 195.563 23.7305 190.703 28.132C189.852 28.9055 189.195 29.7422 188.719 30.6141C188.586 29.932 188.414 29.243 188.211 28.5469C187.648 26.6555 186.75 24.7992 185.609 23.175C184.82 22.057 183.938 21.0164 183.008 20.0391C190.242 13.493 197.523 6.975 204.789 0.449998C204.953 0.302343 205.148 0.18281 205.32 0.0492172V14.9695H205.328Z" fill="white"/>
</g>
<mask id="mask1_55_3" style="mask-type:luminance" maskUnits="userSpaceOnUse" x="181" y="13" width="55" height="56">
<path d="M181.594 13.2188H235.594V68.85H181.594V13.2188Z" fill="white"/>
</mask>
<g mask="url(#mask1_55_3)">
<path fill-rule="evenodd" clip-rule="evenodd" d="M229.383 46.5187C221.609 53.8523 213.469 60.8766 205.266 68.2242C201.898 65.1656 198.57 62.1141 195.219 59.0906C191.141 55.4062 187.055 51.7289 182.953 48.0586C183 48.0164 183.047 47.9742 183.086 47.932C186.234 44.9648 188.164 41.5336 188.844 37.7508C189.305 38.5664 189.938 39.3328 190.727 40.05C195.555 44.4164 200.398 48.7758 205.312 53.2055C205.688 52.9172 206.023 52.6992 206.312 52.4391C210.953 48.2695 215.625 44.1141 220.227 39.9094C223.875 36.5625 223.891 31.6055 220.25 28.3078C215.547 32.6391 210.852 36.9703 205.984 41.4492V26.0508C206.797 25.3125 207.609 24.5883 208.43 23.857C212.062 20.5875 215.695 17.325 219.336 14.0625C219.594 13.8234 219.883 13.6125 220.305 13.268C224.078 16.9945 228.625 20.0039 231.633 24.2789C232.656 25.7344 233.453 27.4078 233.945 29.0812C235.867 35.5852 234.547 41.6461 229.383 46.5187Z" fill="white"/>
</g>
<mask id="mask2_55_3" style="mask-type:luminance" maskUnits="userSpaceOnUse" x="125" y="0" width="63" height="69">
<path d="M125.594 0H187.594V68.85H125.594V0Z" fill="white"/>
</mask>
<g mask="url(#mask2_55_3)">
<path fill-rule="evenodd" clip-rule="evenodd" d="M180.578 46.5187C172.813 53.8523 164.664 60.8766 156.461 68.2242C153.102 65.1656 149.766 62.1141 146.414 59.0906C142.156 55.2375 137.883 51.3984 133.602 47.5664C125.227 40.057 125.149 28.2375 133.485 20.6859C140.953 13.9148 148.485 7.19297 155.985 0.449998C156.149 0.302343 156.344 0.18281 156.524 0.0492172V14.9695C151.633 19.35 146.758 23.7305 141.899 28.132C138.047 31.6195 138.071 36.5625 141.922 40.05C146.758 44.4164 151.594 48.7758 156.508 53.2055C156.883 52.9172 157.219 52.6992 157.508 52.4391C162.149 48.2695 166.821 44.1141 171.422 39.9094C175.078 36.5625 175.086 31.6125 171.446 28.3078C166.75 32.6391 162.047 36.9703 157.18 41.4492V26.0508C158 25.3125 158.813 24.5883 159.625 23.857C163.258 20.5875 166.891 17.325 170.531 14.0625C170.797 13.8234 171.078 13.6125 171.5 13.268C175.274 16.9945 179.821 20.0039 182.828 24.2789C183.852 25.7344 184.649 27.4078 185.141 29.0812C187.063 35.5852 185.742 41.6461 180.578 46.5187Z" fill="white"/>
</g>
<mask id="mask3_55_3" style="mask-type:luminance" maskUnits="userSpaceOnUse" x="1" y="22" width="117" height="51">
<path d="M117.594 22.2187H1.59375V72.6187H117.594V22.2187Z" fill="white"/>
</mask>
<g mask="url(#mask3_55_3)">
<path d="M4.9375 61.944C4.3125 61.944 4 61.6558 4 61.0722V26.1128C4 25.5362 4.3125 25.2409 4.9375 25.2409H22.2188C24.7813 25.2409 27.0703 25.7683 29.0938 26.8159C31.1328 27.8706 32.7344 29.312 33.9063 31.1472C35.0703 32.9683 35.6563 35.0284 35.6563 37.3347V49.8503C35.6563 52.1565 35.0703 54.2308 33.9063 56.0659C32.7344 57.887 31.1406 59.3214 29.125 60.369C27.1016 61.4237 24.7969 61.944 22.2188 61.944H4.9375ZM10.2188 57.1909H22.2188C23.8203 57.1909 25.2344 56.8815 26.4688 56.2628C27.6953 55.644 28.6563 54.7862 29.3438 53.6753C30.0313 52.5714 30.375 51.2987 30.375 49.8503V37.3347C30.375 35.8933 30.0156 34.6206 29.3125 33.5097C28.6016 32.4058 27.6406 31.5409 26.4375 30.9222C25.2266 30.3034 23.8203 29.994 22.2188 29.994H10.2188C9.59375 29.994 9.28125 30.2894 9.28125 30.8659V56.319C9.28125 56.9026 9.59375 57.1909 10.2188 57.1909Z" fill="#FDFDFD"/>
<path d="M48.7896 61.944C47.0161 61.944 45.4224 61.5784 44.0083 60.8472C42.6099 60.1159 41.5083 59.1245 40.6958 57.8659C39.8833 56.6144 39.4771 55.194 39.4771 53.619C39.4771 52.03 39.8833 50.6097 40.6958 49.3722C41.5083 48.1206 42.6099 47.1222 44.0083 46.3909C45.4224 45.6456 47.0161 45.2659 48.7896 45.2659H59.3833C59.6724 45.2659 59.9224 45.1815 60.1333 45.0128C60.3364 44.844 60.4224 44.619 60.3833 44.3378C60.2114 42.7276 59.6177 41.5112 58.6021 40.6815C57.5786 39.8589 56.2896 39.444 54.7271 39.444H50.3208C49.0864 39.444 48.0083 39.7253 47.0708 40.2878C46.1489 40.8362 45.4771 41.5464 45.0396 42.4253C44.8677 42.7839 44.6021 42.9597 44.2271 42.9597H40.7271C40.3911 42.9597 40.1099 42.8472 39.8833 42.6222C39.6724 42.3831 39.6099 42.1159 39.6958 41.8347C40.3208 39.6972 41.5786 37.9745 43.4771 36.6597C45.3677 35.3519 47.6489 34.6909 50.3208 34.6909H54.7271C56.8677 34.6909 58.7661 35.1269 60.4146 35.9847C62.0552 36.8284 63.3521 37.9956 64.2896 39.4722C65.2271 40.9558 65.6958 42.6644 65.6958 44.5909V61.0722C65.6958 61.3183 65.6021 61.5222 65.4146 61.6909C65.2271 61.8597 65.0083 61.944 64.7583 61.944H61.3833C61.1333 61.944 60.9146 61.8597 60.7271 61.6909C60.5396 61.5222 60.4458 61.3183 60.4458 61.0722C60.4458 60.6433 60.2661 60.4253 59.9146 60.4253C59.7661 60.4253 59.6021 60.4745 59.4146 60.5659C57.5552 61.487 55.4302 61.944 53.0396 61.944H48.7896ZM48.7896 57.1909H53.0396C54.4771 57.1909 55.7427 56.9097 56.8521 56.3472C57.9536 55.7847 58.8286 55.0112 59.4771 54.0128C60.1177 53.0003 60.4458 51.8612 60.4458 50.5815C60.4458 50.455 60.3364 50.3284 60.1333 50.2159C59.9458 50.0894 59.7271 50.019 59.4771 50.019H48.7896C47.6021 50.019 46.6333 50.3565 45.8833 51.0315C45.1333 51.6925 44.7583 52.5503 44.7583 53.619C44.7583 54.6878 45.1333 55.5526 45.8833 56.2065C46.6333 56.8675 47.6021 57.1909 48.7896 57.1909Z" fill="#FDFDFD"/>
<path d="M82.1509 61.944C80.4165 61.944 78.8853 61.6065 77.5571 60.9315C76.2212 60.2565 75.1821 59.3214 74.4321 58.119C73.6821 56.9026 73.3071 55.5315 73.3071 54.0128V40.344C73.3071 40.119 73.2134 39.9222 73.0259 39.7534C72.8384 39.5847 72.6196 39.5003 72.3696 39.5003H69.9946C69.7446 39.5003 69.5259 39.4159 69.3384 39.2472C69.1509 39.0644 69.0571 38.8534 69.0571 38.6284V35.619C69.0571 35.38 69.1509 35.169 69.3384 35.0003C69.5259 34.8315 69.7446 34.7472 69.9946 34.7472H72.3696C72.6196 34.7472 72.8384 34.6628 73.0259 34.494C73.2134 34.3253 73.3071 34.1214 73.3071 33.8753V26.1128C73.3071 25.8878 73.4009 25.6909 73.5884 25.5222C73.7915 25.3394 74.0259 25.2409 74.2759 25.2409H77.6196C77.8853 25.2409 78.1196 25.3394 78.3071 25.5222C78.4946 25.6909 78.5884 25.8878 78.5884 26.1128V33.8472C78.5884 34.0722 78.6821 34.269 78.8696 34.4378C79.0728 34.6065 79.3071 34.6909 79.5571 34.6909H83.9321C84.1821 34.6909 84.4009 34.7894 84.5884 34.9722C84.7759 35.1409 84.8696 35.3378 84.8696 35.5628V38.6284C84.8696 38.8534 84.7759 39.0644 84.5884 39.2472C84.4009 39.4159 84.1821 39.5003 83.9321 39.5003H79.5571C79.3071 39.5003 79.0728 39.5847 78.8696 39.7534C78.6821 39.9222 78.5884 40.119 78.5884 40.344V53.6472C78.5884 54.7019 78.9478 55.5526 79.6821 56.2065C80.4321 56.8675 81.3774 57.1909 82.5259 57.1909H83.9321C84.1821 57.1909 84.4009 57.2894 84.5884 57.4722C84.7759 57.6409 84.8696 57.8378 84.8696 58.0628V61.0722C84.8696 61.3183 84.7759 61.5222 84.5884 61.6909C84.4009 61.8597 84.1821 61.944 83.9321 61.944H82.1509Z" fill="#FDFDFD"/>
<path d="M97.3062 61.944C95.5327 61.944 93.939 61.5784 92.5249 60.8472C91.1265 60.1159 90.0249 59.1245 89.2124 57.8659C88.3999 56.6144 87.9937 55.194 87.9937 53.619C87.9937 52.03 88.3999 50.6097 89.2124 49.3722C90.0249 48.1206 91.1265 47.1222 92.5249 46.3909C93.939 45.6456 95.5327 45.2659 97.3062 45.2659H107.9C108.189 45.2659 108.439 45.1815 108.65 45.0128C108.853 44.844 108.939 44.619 108.9 44.3378C108.728 42.7276 108.134 41.5112 107.119 40.6815C106.095 39.8589 104.806 39.444 103.244 39.444H98.8374C97.603 39.444 96.5249 39.7253 95.5874 40.2878C94.6655 40.8362 93.9937 41.5464 93.5562 42.4253C93.3843 42.7839 93.1187 42.9597 92.7437 42.9597H89.2437C88.9077 42.9597 88.6265 42.8472 88.3999 42.6222C88.189 42.3831 88.1265 42.1159 88.2124 41.8347C88.8374 39.6972 90.0952 37.9745 91.9937 36.6597C93.8843 35.3519 96.1655 34.6909 98.8374 34.6909H103.244C105.384 34.6909 107.283 35.1269 108.931 35.9847C110.572 36.8284 111.869 37.9956 112.806 39.4722C113.744 40.9558 114.212 42.6644 114.212 44.5909V61.0722C114.212 61.3183 114.119 61.5222 113.931 61.6909C113.744 61.8597 113.525 61.944 113.275 61.944H109.9C109.65 61.944 109.431 61.8597 109.244 61.6909C109.056 61.5222 108.962 61.3183 108.962 61.0722C108.962 60.6433 108.783 60.4253 108.431 60.4253C108.283 60.4253 108.119 60.4745 107.931 60.5659C106.072 61.487 103.947 61.944 101.556 61.944H97.3062ZM97.3062 57.1909H101.556C102.994 57.1909 104.259 56.9097 105.369 56.3472C106.47 55.7847 107.345 55.0112 107.994 54.0128C108.634 53.0003 108.962 51.8612 108.962 50.5815C108.962 50.455 108.853 50.3284 108.65 50.2159C108.462 50.0894 108.244 50.019 107.994 50.019H97.3062C96.1187 50.019 95.1499 50.3565 94.3999 51.0315C93.6499 51.6925 93.2749 52.5503 93.2749 53.619C93.2749 54.6878 93.6499 55.5526 94.3999 56.2065C95.1499 56.8675 96.1187 57.1909 97.3062 57.1909Z" fill="#FDFDFD"/>
</g>
</g>
<defs>
<filter id="filter0_d_55_3" x="0" y="0.0492172" width="238.785" height="76.175" filterUnits="userSpaceOnUse" color-interpolation-filters="sRGB">
<feFlood flood-opacity="0" result="BackgroundImageFix"/>
<feColorMatrix in="SourceAlpha" type="matrix" values="0 0 0 0 0 0 0 0 0 0 0 0 0 0 0 0 0 0 127 0" result="hardAlpha"/>
<feOffset dy="4"/>
<feGaussianBlur stdDeviation="2"/>
<feComposite in2="hardAlpha" operator="out"/>
<feColorMatrix type="matrix" values="0 0 0 0 0 0 0 0 0 0 0 0 0 0 0 0 0 0 0.25 0"/>
<feBlend mode="normal" in2="BackgroundImageFix" result="effect1_dropShadow_55_3"/>
<feBlend mode="normal" in="SourceGraphic" in2="effect1_dropShadow_55_3" result="shape"/>
</filter>
</defs>
</svg>
